<?xml version="1.0" encoding="utf-8"?>
<!-- Generator: Adobe Illustrator 22.0.1, SVG Export Plug-In . SVG Version: 6.00 Build 0)  -->
<svg version="1.1" id="Capa_1" xmlns="http://www.w3.org/2000/svg" xmlns:xlink="http://www.w3.org/1999/xlink" x="0px" y="0px"
	 viewBox="0 0 512 512" style="enable-background:new 0 0 512 512;" xml:space="preserve">
<style type="text/css">
	.st0{fill:url(#SVGID_1_);}
	.st1{fill:#40A077;}
	.st2{fill:#C1C1C1;}
	.st3{fill:#D1CFCF;}
	.st4{fill:#DDDBDB;}
	.st5{fill:#C4C2C2;}
	.st6{fill:#B5B4B4;}
	.st7{fill:url(#SVGID_2_);stroke:#000000;stroke-width:5.477564e-02;stroke-miterlimit:10;}
</style>
<radialGradient id="SVGID_1_" cx="237.6" cy="116.95" r="130.5116" gradientTransform="matrix(4.350596e-02 0 0 -6.896459e-02 401.7322 410.424)" gradientUnits="userSpaceOnUse">
	<stop  offset="1" style="stop-color:#000000;stop-opacity:0.7"/>
	<stop  offset="1" style="stop-color:#FFFFFF"/>
</radialGradient>
<ellipse class="st0" cx="412.1" cy="402.4" rx="8" ry="0.5"/>
<g>
	<path class="st1" d="M406.9,402l6.2-0.2v0l2.5-4.2c0,0,0-0.1,0-0.2l0,0c0,0,0-0.1,0-0.1l0,0c0-0.1,0-0.1-0.1-0.2l-2.6-4v0l-6.2,0.2
		v0l-2.3,4.2c0,0,0,0.1,0,0.2c0,0,0,0.1,0,0.1c0,0.1,0,0.1,0.1,0.2L406.9,402L406.9,402L406.9,402z"/>
	<polygon class="st2" points="406.7,393.4 412.9,393.1 413,401.8 406.9,402 	"/>
	<polygon class="st3" points="406.7,393.4 412.9,393.1 412.9,395.4 406.8,395.7 	"/>
	<polygon class="st4" points="406.8,395.7 412.9,395.4 413,399.5 406.8,399.8 	"/>
	<path class="st5" d="M413,399.5l2.6-2.1c0,0,0-0.1,0-0.1l-2.6-1.9L413,399.5z"/>
	<path class="st6" d="M413,399.5l0,2.3l2.5-4.2c0,0,0-0.1,0-0.2L413,399.5z"/>
	<path class="st6" d="M415.5,397.1l-2.6-4l0,2.3l2.6,1.9C415.6,397.2,415.5,397.2,415.5,397.1z"/>
	<path class="st6" d="M406.8,395.7l-2.4,2.1c0,0,0,0.1,0,0.1l2.5,1.9L406.8,395.7z"/>
	<path class="st5" d="M404.4,398l2.5,4l0-2.3l-2.5-1.9C404.4,397.9,404.4,398,404.4,398z"/>
	<path class="st5" d="M406.7,393.4l-2.3,4.2c0,0,0,0.1,0,0.2l2.4-2.1L406.7,393.4L406.7,393.4z"/>
</g>
<radialGradient id="SVGID_2_" cx="281.8879" cy="215.8369" r="54.1413" gradientTransform="matrix(4.350596e-02 0 0 -6.896459e-02 401.7322 410.424)" gradientUnits="userSpaceOnUse">
	<stop  offset="1" style="stop-color:#000000;stop-opacity:0.7"/>
	<stop  offset="1" style="stop-color:#FFFFFF"/>
</radialGradient>
<path class="st7" d="M416.2,397.8c-0.6,0.5-1.2,1.4-1.8,1.6c-0.1,0-0.2,0.2-0.3,0.1c-0.1-0.1-0.1-0.2-0.2-0.3
	c-0.3-0.5-0.5-1.3-0.7-1.8c-0.3-0.9-0.7-1.8-1-2.7c-0.1-0.4-0.3-0.7-0.4-1.1c0,0,0-0.1,0-0.2c0,0,0-0.1,0.1-0.1
	c0.1-0.1,0.2-0.2,0.3-0.3c0.1-0.1,0.3-0.2,0.4-0.4c0.1-0.1,1.3-1.2,1.3-1.2C413.9,391.5,416.2,397.8,416.2,397.8z"/>
<g>
	<path class="st1" d="M419.3,396.7l-3.1-8.5l0,0l-3.4-1.6c0,0-0.1,0-0.1,0l0,0c0,0-0.1,0-0.1,0.1l0,0c0,0,0,0.1-0.1,0.1l-0.8,5.5
		l0,0l3.1,8.5l0,0l3.3,1.4c0,0,0.1,0,0.1,0c0,0,0,0,0,0c0,0,0,0,0.1-0.1c0,0,0-0.1,0.1-0.1L419.3,396.7L419.3,396.7L419.3,396.7z"/>
	<path class="st2" d="M411.8,392.2l4.4-4c0,0,0.1,0,0.1,0l3,8.4c0,0,0,0.1,0,0.1l-4.4,4c0,0-0.1,0-0.1,0l-3-8.4
		C411.8,392.3,411.8,392.3,411.8,392.2z"/>
	<path class="st3" d="M411.8,392.2l1.1-1c0,0,0.1,0,0.1,0l3,8.4c0,0,0,0.1,0,0.1l-1.1,1c0,0-0.1,0-0.1,0l-3-8.4
		C411.8,392.3,411.8,392.3,411.8,392.2z"/>
	<path class="st4" d="M413,391.2l2-1.8c0,0,0.1,0,0.1,0l3,8.4c0,0,0,0.1,0,0.1l-2,1.8c0,0-0.1,0-0.1,0l-3-8.4
		C413,391.3,413,391.2,413,391.2z"/>
	<path class="st5" d="M415,389.2l-2.2-2.6c0,0,0,0-0.1,0c0,0,0,0,0,0c0,0,0,0.1,0,0.1l0.3,4.3c0,0.1,0.1,0.1,0.1,0.1l2-1.8
		C415,389.3,415,389.2,415,389.2z"/>
	<path class="st6" d="M415.1,389.3l1-0.9c0,0,0-0.2,0-0.2l-3.3-1.5c0,0-0.1,0-0.1,0L415.1,389.3
		C415.1,389.3,415.1,389.3,415.1,389.3z"/>
	<path class="st6" d="M412.6,386.8l-0.8,5.2c0,0.1,0,0.1,0.1,0.1l1-0.9c0,0,0-0.1,0-0.1l-0.3-4.5
		C412.6,386.7,412.6,386.8,412.6,386.8z"/>
	<path class="st6" d="M416.1,399.8l2.2,2.3c0,0,0,0,0.1,0l0,0c0,0,0-0.1,0-0.1l-0.2-4.1c0-0.1-0.1-0.1-0.1-0.1l-2,1.8
		C416.1,399.7,416.1,399.8,416.1,399.8z"/>
	<path class="st5" d="M418.4,402l0.9-5c0-0.1,0-0.2-0.1-0.1l-1,0.9c0,0,0,0.1,0,0.1l0.2,4.3C418.4,402.1,418.4,402,418.4,402z"/>
	<path class="st5" d="M414.9,400.8l3.3,1.4c0,0,0.1,0,0.1,0l-2.2-2.4c0,0,0,0-0.1,0L414.9,400.8L414.9,400.8z"/>
</g>
</svg>
