<?xml version="1.0" encoding="utf-8"?>
<!-- Generator: Adobe Illustrator 22.0.1, SVG Export Plug-In . SVG Version: 6.00 Build 0)  -->
<svg version="1.1" id="Capa_1" xmlns="http://www.w3.org/2000/svg" xmlns:xlink="http://www.w3.org/1999/xlink" x="0px" y="0px"
	 viewBox="0 0 512 512" style="enable-background:new 0 0 512 512;" xml:space="preserve">
<style type="text/css">
	.st0{fill:url(#SVGID_1_);}
	.st1{fill:#40A077;}
	.st2{fill:#C1C1C1;}
	.st3{fill:#D1CFCF;}
	.st4{fill:#DDDBDB;}
	.st5{fill:#C4C2C2;}
	.st6{fill:#B5B4B4;}
	.st7{fill:url(#SVGID_2_);stroke:#000000;stroke-miterlimit:10;}
</style>
<radialGradient id="SVGID_1_" cx="237.6" cy="395.05" r="130.5116" gradientUnits="userSpaceOnUse">
	<stop  offset="1" style="stop-color:#000000;stop-opacity:0.7"/>
	<stop  offset="1" style="stop-color:#FFFFFF"/>
</radialGradient>
<ellipse class="st0" cx="237.6" cy="395" rx="184.4" ry="7.9"/>
<g>
	<path class="st1" d="M118.3,390.1l141.5-3.6l0,0.2l57.1-60.8c0.7-0.7,0.9-1.7,1.1-2.4l0,0c0.1-0.5,0.1-1.4-0.1-2l0,0
		c-0.2-0.8-0.5-1.7-1.3-2.3l-60.2-57.8l0,0.2l-141.5,3.6l0-0.2l-53.5,60.9c-0.6,0.7-1,1.5-1.1,2.3c-0.1,0.6-0.1,1.3,0,1.9
		c0.2,0.8,0.6,1.6,1.2,2.2l56.6,58L118.3,390.1L118.3,390.1z"/>
	
		<rect x="116.5" y="263.3" transform="matrix(0.9997 -2.570618e-02 2.570618e-02 0.9997 -8.3154 4.924)" class="st2" width="141.6" height="125.2"/>
	
		<rect x="115.4" y="263.3" transform="matrix(0.9997 -2.570618e-02 2.570618e-02 0.9997 -7.1277 4.8782)" class="st3" width="141.6" height="32.7"/>
	
		<rect x="116.5" y="296" transform="matrix(0.9997 -2.570618e-02 2.570618e-02 0.9997 -8.3154 4.924)" class="st4" width="141.6" height="59.7"/>
	<path class="st5" d="M258.8,353.9l59.2-30.4c0.1-0.6,0.1-1.3-0.1-2l-60.7-27.4L258.8,353.9z"/>
	<path class="st6" d="M258.8,353.9l0.8,32.7l57.1-60.8c0.7-0.7,1.1-1.5,1.1-2.4L258.8,353.9z"/>
	<path class="st6" d="M316.7,319.3l-60.2-57.8l0.8,32.7l60.7,27.4C317.7,320.7,317.3,319.9,316.7,319.3z"/>
	<path class="st6" d="M115.8,297.9l-55.4,30.3c-0.1,0.6-0.1,1.3,0,1.9l56.9,27.5L115.8,297.9z"/>
	<path class="st5" d="M61.6,332.3l56.6,58l-0.8-32.7l-56.9-27.5C60.6,331,61,331.7,61.6,332.3z"/>
	<path class="st5" d="M115,265.1l-53.5,60.8c-0.6,0.7-1,1.5-1,2.3l55.4-30.3L115,265.1L115,265.1z"/>
</g>
<radialGradient id="SVGID_2_" cx="281.9366" cy="296.2145" r="54.1365" gradientUnits="userSpaceOnUse">
	<stop  offset="1" style="stop-color:#000000;stop-opacity:0.7"/>
	<stop  offset="1" style="stop-color:#FFFFFF"/>
</radialGradient>
<path class="st7" d="M331.8,328.8c-12.7,7.3-27.2,20.1-41.3,23.8c-1.7,0.4-4.7,2.4-6.4,1.3c-1.6-1-3-3.2-4.3-4.6
	c-6.1-6.6-10.5-18.2-15.1-26.1c-7.6-13.1-15.2-26.1-22.7-39.2c-3.1-5.4-7-10.7-9.6-16.3c-0.3-0.7-0.6-1.5-0.3-2.2
	c0.2-0.5,0.8-0.8,1.3-1.1c2.5-1.3,5.1-2.5,7.5-3.9c3-1.7,6-3.4,9-5.1c2.5-1.4,29.6-17.3,29.6-17.3
	C279.6,238.3,331.8,328.8,331.8,328.8z"/>
<g>
	<path class="st1" d="M404.6,313.5L333.3,190l0.2-0.1l-78-23.2c-0.9-0.3-1.9-0.1-2.5,0.1l0,0c-0.5,0.2-1.2,0.6-1.6,0.9l0,0
		c-0.6,0.6-1.1,1.2-1.3,2.1l-18.9,79.2l0.2-0.1l71.3,123.5l-0.2,0.1l76.3,20c0.8,0.2,1.6,0.2,2.3,0c0.1,0,0.2,0,0.3-0.1
		c0.5-0.2,1-0.5,1.4-0.8c0.6-0.6,1-1.3,1.2-2.1L404.6,313.5L404.6,313.5L404.6,313.5z"/>
	<path class="st2" d="M232.4,248.4l100-57.7c0.7-0.4,1.5-0.2,1.9,0.5l70,121.2c0.4,0.7,0.2,1.5-0.5,1.9l-100,57.7
		c-0.7,0.4-1.5,0.2-1.9-0.5l-70-121.2C231.5,249.6,231.7,248.8,232.4,248.4z"/>
	<path class="st3" d="M232.4,248.4l24.4-14.1c0.7-0.4,1.5-0.2,1.9,0.5l70,121.2c0.4,0.7,0.2,1.5-0.5,1.9L303.7,372
		c-0.7,0.4-1.5,0.2-1.9-0.5l-70-121.2C231.5,249.6,231.7,248.8,232.4,248.4z"/>
	<path class="st4" d="M259.1,233l46.5-26.8c0.7-0.4,1.5-0.2,1.9,0.5l70,121.2c0.4,0.7,0.2,1.5-0.5,1.9l-46.5,26.8
		c-0.7,0.4-1.5,0.2-1.9-0.5l-70-121.2C258.3,234.2,258.5,233.4,259.1,233z"/>
	<path class="st5" d="M305.1,204.2l-51.5-37c-0.4-0.3-1-0.4-1.4-0.1c-0.1,0-0.1,0.1-0.2,0.1c-0.4,0.3-0.7,0.8-0.6,1.3l6.3,63
		c0.1,1,1.2,1.5,2,1l45.3-26.1C305.8,206,305.9,204.8,305.1,204.2z"/>
	<path class="st6" d="M307.6,205l23.2-13.4c1-0.6,0.9-2.2-0.3-2.5l-75-22.3c-0.9-0.3-1.8-0.3-2.5,0.1l53.1,38.1
		C306.5,205.3,307.1,205.3,307.6,205z"/>
	<path class="st6" d="M250.1,169.8l-18.2,76.1c-0.3,1.2,1,2.1,2,1.5l23.2-13.4c0.5-0.3,0.7-0.8,0.7-1.3l-6.5-65.1
		C250.8,168.3,250.3,169,250.1,169.8z"/>
	<path class="st6" d="M331.1,358.4l49.5,33.7c0.4,0.3,1,0.3,1.5,0.1c0,0,0,0,0,0c0.5-0.3,0.7-0.8,0.7-1.3l-4.4-59.7
		c-0.1-1-1.2-1.6-2-1.1l-45.1,26C330.3,356.6,330.2,357.8,331.1,358.4z"/>
	<path class="st5" d="M384,389.6l20-72.9c0.3-1.2-0.9-2.2-2-1.5l-23.1,13.4c-0.5,0.3-0.7,0.8-0.7,1.3l4.6,61.8
		C383.4,391.1,383.8,390.4,384,389.6z"/>
	<path class="st5" d="M302.5,372.6l76.3,20c0.8,0.2,1.7,0.2,2.4-0.1L330,357.6c-0.4-0.3-1-0.3-1.5-0.1L302.5,372.6L302.5,372.6z"/>
</g>
</svg>
